<svg xmlns="http://www.w3.org/2000/svg" width="65" height="65" viewBox="0 0 65 65">
  <g id="Group_10915" data-name="Group 10915" transform="translate(-1477 -106)">
    <rect id="Rectangle_3910" data-name="Rectangle 3910" width="65" height="65" rx="2" transform="translate(1477 106)" fill="#0bb7a7"/>
    <g id="Group_10913" data-name="Group 10913" transform="translate(1489.977 122.868)">
      <path id="Path_15125" data-name="Path 15125" d="M323.983,221.21v-3.348a6.867,6.867,0,0,1-1.421.688,19.509,19.509,0,0,1-11.531,0,6.838,6.838,0,0,1-1.418-.688v3.46c0,.768,2.447,2.2,7.185,2.2s7.185-1.432,7.185-2.2Zm-7.193-8.469c4.738,0,7.216-1.432,7.216-2.2s-2.478-2.2-7.216-2.2-7.216,1.432-7.216,2.2S312.052,212.741,316.789,212.741Z" transform="translate(-285.27 -196.512)" fill="#fff"/>
      <path id="Path_15126" data-name="Path 15126" d="M77.276,108.226a17.544,17.544,0,0,1-5.769-.871,6.838,6.838,0,0,1-1.419-.688v3.5c0,.768,2.456,2.2,7.194,2.2a18.885,18.885,0,0,0,3.539-.319,9.09,9.09,0,0,0,2.808-.949c.534-.315.829-.654.829-.932v-3.5a6.857,6.857,0,0,1-1.421.688A17.5,17.5,0,0,1,77.276,108.226Zm7.183-12.341a6.864,6.864,0,0,1-1.422.688,19.5,19.5,0,0,1-11.53,0,6.83,6.83,0,0,1-1.419-.688v3.461c0,.768,2.447,2.2,7.185,2.2s7.185-1.432,7.185-2.2Zm-35.591-9.73A25.454,25.454,0,0,0,57.21,87.4a25.456,25.456,0,0,0,8.342-1.245c1.954-.707,3.121-1.639,3.121-2.492s-1.167-1.785-3.121-2.492a25.454,25.454,0,0,0-8.342-1.245,25.454,25.454,0,0,0-8.342,1.245c-1.954.707-3.121,1.639-3.121,2.492S46.914,85.448,48.868,86.155Zm19.84,13.94V94.249a10.549,10.549,0,0,1-2.7,1.422,26.854,26.854,0,0,1-8.8,1.321,26.726,26.726,0,0,1-8.775-1.321,9.008,9.008,0,0,1-2.67-1.422v6.019c0,.854,1.159,1.786,3.114,2.493A25.414,25.414,0,0,0,57.219,104a25.525,25.525,0,0,0,8.351-1.244c1.953-.707,3.137-1.639,3.137-2.493Z" transform="translate(-45.747 -79.926)" fill="#fff"/>
      <path id="Path_15127" data-name="Path 15127" d="M68.937,145.275a10.549,10.549,0,0,1-2.7,1.422,26.845,26.845,0,0,1-8.8,1.322A26.728,26.728,0,0,1,48.67,146.7,9.02,9.02,0,0,1,46,145.275v6.02c0,.854,1.159,1.786,3.114,2.493a25.415,25.415,0,0,0,8.335,1.244,25.526,25.526,0,0,0,8.351-1.244c1.954-.707,3.138-1.639,3.138-2.493ZM57.445,164.623A26.727,26.727,0,0,1,48.67,163.3,9.006,9.006,0,0,1,46,161.88v6.077c0,.854,1.159,1.786,3.114,2.492a25.413,25.413,0,0,0,8.335,1.244,29.914,29.914,0,0,0,5.557-.5c3.48-.668,5.931-2,5.931-3.24V161.88a10.548,10.548,0,0,1-2.7,1.422A26.854,26.854,0,0,1,57.445,164.623Z" transform="translate(-45.977 -139.255)" fill="#fff"/>
    </g>
  </g>
</svg>
